<svg id="Layer_1" data-name="Layer 1" xmlns="http://www.w3.org/2000/svg" viewBox="0 0 484.22 242.73"><defs><style>.cls-1{fill:#3762fa;}</style></defs><path class="cls-1" d="M416.62,92.59c-1.68,2.84-3.37,5.67-5.06,8.52,9.77,13.44,13.63,28.37,10.9,44.8a56.26,56.26,0,0,1-18,33.05,58.08,58.08,0,0,1-70.18,6.23c10.66-12.79,21.29-25.55,32-38.46l11.84,14.16c1.85,2.21,3.66,4.45,5.56,6.62a3.14,3.14,0,0,0,1.83,1.17c6.09.08,12.18,0,18.89,0l-26.76-32.09-1.19-1.42-.28-.35L422.7,79l1.06-1.28.81,1.46,10.89,19.85,1.69-51.46-54.36,10,30.57,8.81L376.75,111l-.26-.21q-5.1,6.1-10.21,12.24c-3.73-4.46-7.32-8.76-10.93-13.06-1.71-2-3.08-4.86-5.28-5.87s-5.37-.36-8.1-.38c-3.65,0-7.3,0-11.61,0l26,31.2-54.13,65-.4-.25,5.44-10.12c3.15-5.87,6.26-11.78,9.52-17.6a3.27,3.27,0,0,0-.19-3.95,58,58,0,0,1,76.24-82.72l13.68-16.63-40.8-11.76,75.48-13.94-2.31,70.62-15.8-28.79Z"/><path class="cls-1" d="M428.11,73.26l-3.54,6-.81-1.46,4-4.75Z"/><path class="cls-1" d="M43,172.33v-69H72.86a38.87,38.87,0,0,1,16,3A23.39,23.39,0,0,1,99.18,115a23.8,23.8,0,0,1,3.65,13.3,22.78,22.78,0,0,1-14,22,38.37,38.37,0,0,1-16,3.05H51.77l7.29-7.19v26.22Zm16.06-24.45-7.29-7.59H72q7.29,0,11-3.15c2.49-2.11,3.74-5.06,3.74-8.88s-1.25-6.75-3.74-8.82-6.18-3.1-11-3.1H51.77l7.29-7.6Zm55.11,24.45v-69h16.07v56h34.4v13Zm89.31,1.18q-14.68,0-23-8.18t-8.28-23.46V103.32H188.3v38.15q0,9.76,4,14.15T203.58,160q7.29,0,11.34-4.39t4-14.15V103.32h15.67v38.55q0,15.27-8.28,23.46T203.48,173.51Zm69.79,0a56.8,56.8,0,0,1-15.92-2.22,37.27,37.27,0,0,1-12.27-5.76l5.42-12A37.77,37.77,0,0,0,261,158.67a39,39,0,0,0,12.32,2,24.25,24.25,0,0,0,7.64-1,9.54,9.54,0,0,0,4.29-2.61,5.7,5.7,0,0,0,1.38-3.8,5.17,5.17,0,0,0-2.17-4.38,17.65,17.65,0,0,0-5.76-2.67c-2.4-.69-5-1.34-7.84-2s-5.67-1.38-8.53-2.26a34.62,34.62,0,0,1-7.88-3.55,16.68,16.68,0,0,1-5.72-5.82,17.55,17.55,0,0,1-2.12-9,19.48,19.48,0,0,1,3.15-10.79,21.58,21.58,0,0,1,9.62-7.79q6.45-2.91,16.21-2.91a53.35,53.35,0,0,1,12.87,1.58,38.14,38.14,0,0,1,11.09,4.53l-5,12a39.74,39.74,0,0,0-9.56-4,36.19,36.19,0,0,0-9.47-1.33,22.87,22.87,0,0,0-7.59,1,8.87,8.87,0,0,0-4.19,2.81,6.46,6.46,0,0,0-1.33,3.94,5.33,5.33,0,0,0,2.17,4.44,15.82,15.82,0,0,0,5.72,2.61q3.54.94,7.89,1.87c2.89.63,5.74,1.4,8.57,2.32a38.36,38.36,0,0,1,7.79,3.5,16,16,0,0,1,8,14.64,18.9,18.9,0,0,1-3.2,10.65,22.32,22.32,0,0,1-9.71,7.78Q283,173.52,273.27,173.51Z"/><path class="cls-1" d="M376.46,135.22l1.19,1.42-1.4-1.15Z"/></svg>