<svg id="Layer_1" data-name="Layer 1" xmlns="http://www.w3.org/2000/svg" viewBox="0 0 484.22 242.73"><defs><style>.cls-1{fill:#fff;}</style></defs><path class="cls-1" d="M426.47,90.27c-1.69,2.84-3.38,5.67-5.07,8.52,9.77,13.44,13.63,28.37,10.91,44.8a56.22,56.22,0,0,1-18,33,58.08,58.08,0,0,1-70.17,6.24l32-38.46L388,158.57c1.84,2.21,3.65,4.45,5.56,6.61a3.07,3.07,0,0,0,1.82,1.17c6.09.09,12.19.06,18.9.06-9.12-10.94-17.93-21.49-26.76-32.1l-1.19-1.41-.29-.35,46.52-55.83c.36-.43.71-.86,1.07-1.28l.8,1.46,10.9,19.85L447,45.29,392.63,55.34l30.57,8.81-36.61,44.5-.25-.21q-5.1,6.11-10.21,12.24c-3.74-4.47-7.33-8.77-10.93-13.06-1.72-2-3.09-4.86-5.28-5.87s-5.38-.36-8.11-.38c-3.64,0-7.3,0-11.61,0l26,31.2q-27.08,32.49-54.13,65l-.4-.25q2.73-5.06,5.44-10.12c3.16-5.87,6.26-11.78,9.52-17.6a3.24,3.24,0,0,0-.19-3.95A58,58,0,0,1,402.7,82.89l13.68-16.63L375.59,54.5l75.48-14-2.31,70.62L433,82.39Z"/><path class="cls-1" d="M438,70.94l-3.54,6-.8-1.46,4-4.75Z"/><path class="cls-1" d="M52.84,170V101H82.71a38.7,38.7,0,0,1,16,3A23.37,23.37,0,0,1,109,112.63a23.92,23.92,0,0,1,3.65,13.31,22.76,22.76,0,0,1-14,22,38.21,38.21,0,0,1-16,3.06H61.61l7.3-7.2V170Zm16.07-24.45L61.61,138H81.82q7.29,0,11-3.16t3.75-8.87q0-5.72-3.75-8.82t-11-3.11H61.61l7.3-7.59ZM124,170V101h16.07v56h34.41v13Zm89.32,1.18q-14.7,0-23-8.18t-8.28-23.47V101h16.06v38.15q0,9.76,4.05,14.15t11.23,4.38q7.31,0,11.34-4.38t4-14.15V101h15.68v38.54q0,15.28-8.28,23.47T213.33,171.19Zm69.79,0A56.75,56.75,0,0,1,267.2,169a36.89,36.89,0,0,1-12.27-5.77l5.42-12a37.63,37.63,0,0,0,10.45,5.17,38.92,38.92,0,0,0,12.32,2,24.32,24.32,0,0,0,7.64-1,9.54,9.54,0,0,0,4.29-2.61,5.7,5.7,0,0,0,1.38-3.8,5.23,5.23,0,0,0-2.17-4.39,17.92,17.92,0,0,0-5.77-2.66c-2.4-.69-5-1.34-7.84-2s-5.66-1.38-8.52-2.27a34,34,0,0,1-7.89-3.55,16.66,16.66,0,0,1-5.72-5.81,17.58,17.58,0,0,1-2.12-9,19.44,19.44,0,0,1,3.16-10.8,21.48,21.48,0,0,1,9.61-7.78q6.45-2.91,16.22-2.91a52.84,52.84,0,0,1,12.86,1.58,38,38,0,0,1,11.09,4.53l-5,12a40,40,0,0,0-9.56-4,36.6,36.6,0,0,0-9.46-1.33,22.76,22.76,0,0,0-7.59,1,8.7,8.7,0,0,0-4.19,2.81,6.4,6.4,0,0,0-1.33,3.94,5.35,5.35,0,0,0,2.16,4.44,15.9,15.9,0,0,0,5.72,2.61c2.37.62,5,1.25,7.89,1.87a88.17,88.17,0,0,1,8.57,2.32,38.12,38.12,0,0,1,7.79,3.5,16.06,16.06,0,0,1,8,14.64,18.8,18.8,0,0,1-3.21,10.64,22.28,22.28,0,0,1-9.71,7.79Q292.89,171.19,283.12,171.19Z"/><path class="cls-1" d="M386.31,132.9l1.19,1.41-1.41-1.15Z"/></svg>