<svg id="Illustration" xmlns="http://www.w3.org/2000/svg" xmlns:xlink="http://www.w3.org/1999/xlink" viewBox="0 0 3710 3710"><defs><style>.cls-1{fill:url(#linear-gradient);}.cls-2{fill:url(#linear-gradient-2);}.cls-3{fill:url(#linear-gradient-3);}.cls-4{fill:url(#linear-gradient-4);}.cls-5{fill:url(#linear-gradient-5);}.cls-6{fill:url(#linear-gradient-6);}.cls-7{fill:url(#linear-gradient-7);}.cls-8{fill:url(#linear-gradient-8);}.cls-9{fill:url(#linear-gradient-9);}.cls-10{fill:url(#linear-gradient-10);}.cls-11{fill:url(#linear-gradient-11);}.cls-12{fill:url(#linear-gradient-12);}.cls-13{fill:url(#linear-gradient-13);}.cls-14{fill:url(#linear-gradient-14);}.cls-15{fill:url(#linear-gradient-15);}.cls-16{fill:url(#linear-gradient-16);}.cls-17{fill:url(#linear-gradient-17);}.cls-18{fill:#91b3fa;}.cls-19{fill:url(#linear-gradient-18);}.cls-20{fill:url(#linear-gradient-19);}.cls-21{fill:url(#linear-gradient-20);}.cls-22{fill:url(#linear-gradient-21);}.cls-23{fill:url(#linear-gradient-22);}.cls-24{fill:url(#linear-gradient-23);}.cls-25{fill:url(#linear-gradient-24);}.cls-26{fill:#bdd0fb;}.cls-27{fill:#7d97f4;}.cls-28{fill:url(#linear-gradient-25);}.cls-29{fill:url(#linear-gradient-26);}.cls-30{fill:url(#linear-gradient-27);}.cls-31{fill:url(#linear-gradient-28);}.cls-32{fill:url(#linear-gradient-29);}.cls-33{fill:url(#linear-gradient-30);}.cls-34{fill:url(#linear-gradient-31);}.cls-35{fill:url(#linear-gradient-32);}.cls-36{fill:url(#linear-gradient-33);}.cls-37{fill:url(#linear-gradient-34);}.cls-38{fill:#fff;opacity:0.78;}.cls-39{fill:url(#linear-gradient-35);}.cls-40{fill:url(#linear-gradient-36);}.cls-41{fill:url(#linear-gradient-37);}.cls-42{fill:url(#linear-gradient-38);}.cls-43{fill:url(#linear-gradient-39);}.cls-44{fill:url(#linear-gradient-40);}.cls-45{fill:url(#linear-gradient-41);}.cls-46{fill:url(#linear-gradient-42);}.cls-47{fill:url(#linear-gradient-43);}.cls-48{fill:url(#linear-gradient-44);}.cls-49{fill:url(#linear-gradient-45);}.cls-50{fill:url(#linear-gradient-46);}.cls-51{fill:url(#linear-gradient-47);}.cls-52{fill:url(#linear-gradient-48);}.cls-53{fill:url(#linear-gradient-49);}.cls-54{fill:url(#linear-gradient-50);}.cls-55{fill:url(#linear-gradient-51);}.cls-56{fill:url(#linear-gradient-52);}.cls-57{fill:url(#linear-gradient-53);}.cls-58{fill:url(#linear-gradient-54);}.cls-59{fill:url(#linear-gradient-55);}.cls-60{fill:url(#linear-gradient-56);}.cls-61{fill:url(#linear-gradient-57);}.cls-62{fill:url(#linear-gradient-58);}</style><linearGradient id="linear-gradient" x1="3389.48" y1="3474.85" x2="1425.66" y2="1355.17" gradientUnits="userSpaceOnUse"><stop offset="0" stop-color="#dae3fe"/><stop offset="1" stop-color="#e9effd"/></linearGradient><linearGradient id="linear-gradient-2" x1="3106.27" y1="367.98" x2="1621.62" y2="2275.37" gradientUnits="userSpaceOnUse"><stop offset="0" stop-color="#09005d"/><stop offset="1" stop-color="#1a0f91"/></linearGradient><linearGradient id="linear-gradient-3" x1="1039.68" y1="2678.91" x2="3384.92" y2="474.6" gradientUnits="userSpaceOnUse"><stop offset="0" stop-color="#fe7062"/><stop offset="1" stop-color="#ff928e"/></linearGradient><linearGradient id="linear-gradient-4" x1="-1969.09" y1="3073.78" x2="-2565" y2="3721.96" gradientTransform="matrix(-1, 0, 0, 1, 162.12, 0)" xlink:href="#linear-gradient-2"/><linearGradient id="linear-gradient-5" x1="-2162.51" y1="3121.92" x2="-2109.58" y2="3121.92" gradientTransform="matrix(-1, 0, 0, 1, 162.12, 0)" gradientUnits="userSpaceOnUse"><stop offset="0" stop-color="#febbba"/><stop offset="1" stop-color="#ff928e"/></linearGradient><linearGradient id="linear-gradient-6" x1="2380.72" y1="2453.57" x2="2285.09" y2="3324.23" xlink:href="#linear-gradient-2"/><linearGradient id="linear-gradient-7" x1="-2102.78" y1="2950.88" x2="-2698.68" y2="3599.06" gradientTransform="matrix(-1, 0, 0, 1, 162.12, 0)" xlink:href="#linear-gradient-2"/><linearGradient id="linear-gradient-8" x1="-2353.28" y1="3119.21" x2="-2307.58" y2="3119.21" xlink:href="#linear-gradient-5"/><linearGradient id="linear-gradient-9" x1="2447.37" y1="2460.89" x2="2351.75" y2="3331.55" xlink:href="#linear-gradient-2"/><linearGradient id="linear-gradient-10" x1="2312.89" y1="1678.67" x2="2718.88" y2="2665.13" gradientUnits="userSpaceOnUse"><stop offset="0" stop-color="#4042e2"/><stop offset="1" stop-color="#4f52ff"/></linearGradient><linearGradient id="linear-gradient-11" x1="-2664.87" y1="2108.62" x2="-2539.32" y2="2108.62" gradientTransform="matrix(-0.99, 0.15, 0.15, 0.99, -426.2, 52.37)" xlink:href="#linear-gradient-5"/><linearGradient id="linear-gradient-12" x1="-8015.35" y1="-2864.49" x2="-8065.91" y2="-3031.26" gradientTransform="matrix(-0.9, -0.43, -0.43, 0.9, -6083.86, 853.24)" xlink:href="#linear-gradient-5"/><linearGradient id="linear-gradient-13" x1="-8060.96" y1="-3155.05" x2="-8018.67" y2="-2913.82" gradientTransform="matrix(-0.9, -0.43, -0.43, 0.9, -6083.86, 853.24)" xlink:href="#linear-gradient-2"/><linearGradient id="linear-gradient-14" x1="-8067.04" y1="-2865.27" x2="-8112.53" y2="-3015.31" gradientTransform="matrix(-0.9, -0.43, -0.43, 0.9, -6083.86, 853.24)" xlink:href="#linear-gradient-5"/><linearGradient id="linear-gradient-15" x1="2609.68" y1="2338.49" x2="2617.1" y2="2029.87" gradientTransform="matrix(1, 0, 0, 1, 0, 0)" xlink:href="#linear-gradient-5"/><linearGradient id="linear-gradient-16" x1="2502.9" y1="1600.47" x2="2908.89" y2="2586.93" xlink:href="#linear-gradient-10"/><linearGradient id="linear-gradient-17" x1="2011.75" y1="1991.35" x2="2017.58" y2="1748.79" gradientTransform="matrix(1, 0, 0, 1, 0, 0)" xlink:href="#linear-gradient-5"/><linearGradient id="linear-gradient-18" x1="1869.14" y1="1722.75" x2="1915.26" y2="2114.78" xlink:href="#linear-gradient-10"/><linearGradient id="linear-gradient-19" x1="2146.25" y1="1747.25" x2="2552.24" y2="2733.71" xlink:href="#linear-gradient-10"/><linearGradient id="linear-gradient-20" x1="1122.4" y1="1451.62" x2="1229.84" y2="1721.13" gradientTransform="translate(1621.28)" xlink:href="#linear-gradient-2"/><linearGradient id="linear-gradient-21" x1="1515.14" y1="3177" x2="1606.25" y2="3177" gradientTransform="translate(1621.28)" xlink:href="#linear-gradient-10"/><linearGradient id="linear-gradient-22" x1="1130.19" y1="3536.25" x2="1261.29" y2="2004" gradientTransform="translate(1621.28)" gradientUnits="userSpaceOnUse"><stop offset="0" stop-color="#c4421b"/><stop offset="1" stop-color="#5c0e16"/></linearGradient><linearGradient id="linear-gradient-23" x1="1091.89" y1="3160.37" x2="1239.3" y2="3160.37" gradientTransform="translate(1621.28)" xlink:href="#linear-gradient-10"/><linearGradient id="linear-gradient-24" x1="1393.91" y1="3559.05" x2="1525.05" y2="2026.4" xlink:href="#linear-gradient-22"/><linearGradient id="linear-gradient-25" x1="1115.82" y1="2025.91" x2="1140.44" y2="1845.74" xlink:href="#linear-gradient-22"/><linearGradient id="linear-gradient-26" x1="1217.32" y1="2113.71" x2="1380.91" y2="2113.71" xlink:href="#linear-gradient-22"/><linearGradient id="linear-gradient-27" x1="905.52" y1="2124.7" x2="1120.4" y2="1742.29" gradientTransform="translate(1392.19 -99.24) rotate(-11.2)" xlink:href="#linear-gradient-22"/><linearGradient id="linear-gradient-28" x1="951.73" y1="1791.68" x2="1059.17" y2="2061.19" gradientTransform="translate(1392.19 -99.24) rotate(-11.2)" xlink:href="#linear-gradient-2"/><linearGradient id="linear-gradient-29" x1="951.26" y1="2150.41" x2="1166.14" y2="1767.99" gradientTransform="translate(1392.19 -99.24) rotate(-11.2)" xlink:href="#linear-gradient-22"/><linearGradient id="linear-gradient-30" x1="1528.24" y1="1416.06" x2="1895.08" y2="2033.44" xlink:href="#linear-gradient-3"/><linearGradient id="linear-gradient-31" x1="1309.07" y1="1591.53" x2="901.96" y2="1139.69" xlink:href="#linear-gradient-3"/><linearGradient id="linear-gradient-32" x1="1525.5" y1="906.06" x2="2173.51" y2="906.06" xlink:href="#linear-gradient-10"/><linearGradient id="linear-gradient-33" x1="3040.65" y1="1349.28" x2="3217.18" y2="1144.39" gradientTransform="translate(620.76 -2155.61) rotate(43.1)" xlink:href="#linear-gradient-3"/><linearGradient id="linear-gradient-34" x1="3316.93" y1="994.94" x2="2794.93" y2="1783.53" gradientTransform="translate(620.76 -2155.61) rotate(43.1)" xlink:href="#linear-gradient-3"/><linearGradient id="linear-gradient-35" x1="3301.36" y1="1017.54" x2="3023.41" y2="1484.16" gradientTransform="translate(-1063.28 -155.25) rotate(-1.9)" xlink:href="#linear-gradient-3"/><linearGradient id="linear-gradient-36" x1="2870.02" y1="1530.91" x2="3015.1" y2="1362.52" gradientTransform="matrix(0.6, 0.8, -0.8, 0.6, 1289.91, -2130.27)" xlink:href="#linear-gradient-3"/><linearGradient id="linear-gradient-37" x1="3097.07" y1="1239.71" x2="2668.09" y2="1887.78" gradientTransform="translate(722.99 -1951.45) rotate(43.1)" xlink:href="#linear-gradient-3"/><linearGradient id="linear-gradient-38" x1="3084.27" y1="1258.28" x2="2855.85" y2="1641.76" gradientTransform="translate(-1063.28 -155.25) rotate(-1.9)" xlink:href="#linear-gradient-3"/><linearGradient id="linear-gradient-39" x1="3309.18" y1="1240.28" x2="3539.29" y2="973.19" gradientTransform="translate(584.23 -2433.58) rotate(43.1)" xlink:href="#linear-gradient-3"/><linearGradient id="linear-gradient-40" x1="3669.32" y1="778.38" x2="2988.88" y2="1806.34" gradientTransform="translate(584.23 -2433.58) rotate(43.1)" xlink:href="#linear-gradient-3"/><linearGradient id="linear-gradient-41" x1="3649.02" y1="807.84" x2="3286.71" y2="1416.1" gradientTransform="translate(-1063.28 -155.25) rotate(-1.9)" xlink:href="#linear-gradient-3"/><linearGradient id="linear-gradient-42" x1="-2141.03" y1="1437.36" x2="-2033.57" y2="1706.92" gradientTransform="matrix(-1, 0, 0, 1, -1165.43, 0)" xlink:href="#linear-gradient-2"/><linearGradient id="linear-gradient-43" x1="-2465.03" y1="1265.53" x2="-2266.51" y2="1717.23" gradientTransform="matrix(-0.98, -0.21, -0.21, 0.98, -915.01, -113.52)" xlink:href="#linear-gradient-5"/><linearGradient id="linear-gradient-44" x1="-1730.76" y1="3371.66" x2="-1616.68" y2="2522.77" gradientTransform="matrix(-1, 0, 0, 1, -1165.43, 0)" xlink:href="#linear-gradient-10"/><linearGradient id="linear-gradient-45" x1="-2133.24" y1="3522.5" x2="-2002.11" y2="1989.87" gradientTransform="matrix(-1, 0, 0, 1, -1165.43, 0)" xlink:href="#linear-gradient-5"/><linearGradient id="linear-gradient-46" x1="-2119.17" y1="3319.46" x2="-2005.09" y2="2470.57" gradientTransform="matrix(-1, 0, 0, 1, -1165.43, 0)" xlink:href="#linear-gradient-10"/><linearGradient id="linear-gradient-47" x1="-1869.46" y1="3545.3" x2="-1738.29" y2="2012.27" gradientTransform="matrix(-1, 0, 0, 1, -1165.43, 0)" xlink:href="#linear-gradient-5"/><linearGradient id="linear-gradient-48" x1="-2130" y1="1976.93" x2="-2064.43" y2="2585.28" gradientTransform="matrix(-1, 0, 0, 1, -1165.43, 0)" xlink:href="#linear-gradient-10"/><linearGradient id="linear-gradient-49" x1="705.65" y1="2436.39" x2="1038.4" y2="2436.39" xlink:href="#linear-gradient-10"/><linearGradient id="linear-gradient-50" x1="-2147.62" y1="2011.78" x2="-2122.99" y2="1831.57" gradientTransform="matrix(-1, 0, 0, 1, -1165.43, 0)" xlink:href="#linear-gradient-5"/><linearGradient id="linear-gradient-51" x1="472.36" y1="2183.04" x2="1028.51" y2="1950.38" gradientTransform="matrix(1, 0, 0, 1, 0, 0)" xlink:href="#linear-gradient-5"/><linearGradient id="linear-gradient-52" x1="-2293.11" y1="1476.65" x2="-2078.17" y2="1094.14" gradientTransform="matrix(-0.98, -0.19, -0.19, 0.98, -936.34, -99.24)" xlink:href="#linear-gradient-5"/><linearGradient id="linear-gradient-53" x1="-2246.88" y1="1143.55" x2="-2139.42" y2="1413.12" gradientTransform="matrix(-0.98, -0.19, -0.19, 0.98, -936.34, -99.24)" xlink:href="#linear-gradient-2"/><linearGradient id="linear-gradient-54" x1="-2247.36" y1="1502.36" x2="-2032.42" y2="1119.85" gradientTransform="matrix(-0.98, -0.19, -0.19, 0.98, -936.34, -99.24)" xlink:href="#linear-gradient-5"/><linearGradient id="linear-gradient-55" x1="-2504.27" y1="1282.78" x2="-2305.74" y2="1734.47" gradientTransform="matrix(-0.98, -0.21, -0.21, 0.98, -915.01, -113.52)" xlink:href="#linear-gradient-5"/><linearGradient id="linear-gradient-56" x1="1342.83" y1="1522.13" x2="1396.28" y2="1522.13" gradientTransform="matrix(1, 0, 0, 1, 0, 0)" xlink:href="#linear-gradient-5"/><linearGradient id="linear-gradient-57" x1="1086.92" y1="1854.45" x2="1267.21" y2="2605.68" xlink:href="#linear-gradient-2"/><linearGradient id="linear-gradient-58" x1="963.37" y1="2053.19" x2="1065.52" y2="2053.19" gradientTransform="matrix(1, 0, 0, 1, 0, 0)" xlink:href="#linear-gradient-5"/></defs><path class="cls-1" d="M3115.81,2266.92c-269.85,630.73-982.15,901.64-1540.24,855.45-152.39-12.61-459-38-698.38-264.37C417.45,2423.23,488.25,1514.46,928.36,979.42c56.67-68.9,449-530.54,1060.31-524.36,447.59,4.53,761.75,257.36,799.95,288.86,48.25,39.79,154.69,134.35,250.61,284.35C3264.62,1380.74,3284.43,1872.78,3115.81,2266.92Z"/><path class="cls-2" d="M482.47,1285.84v1331.6a202,202,0,0,0,196.8,201.95c486.36,12.54,1906,43,2369,36.12a148.64,148.64,0,0,0,146.34-144.4c8.92-309.35,23.42-1053.23-30.23-1398.58a153,153,0,0,0-146.26-129.47c-407.51-13-1929.32-54.43-2392.09-44A146.83,146.83,0,0,0,482.47,1285.84Z"/><path class="cls-3" d="M566,1279.36V2544.47a117,117,0,0,0,115.29,117l2300.33,31.89a113.89,113.89,0,0,0,115.61-113.46l4.32-1253.81a83.3,83.3,0,0,0-81.28-83.59l-2361.81-53.4A90.26,90.26,0,0,0,566,1279.36Z"/><path class="cls-4" d="M2319.58,3122.07s6.17,34.93,9.2,69.52a23.83,23.83,0,0,1-22.8,25.81c-46.05,1.92-144.57,5.65-179.92,4.07a7.75,7.75,0,0,1-6.82-10.62h0a17.36,17.36,0,0,1,8.88-9.35l162.73-74.79Z"/><path class="cls-5" d="M2324.64,3101.54l-5,41.79s-28.51,13.27-48-1.67l11.8-46.57Z"/><path class="cls-6" d="M2320.91,2315.88c2.14,10.92,11.5,544.59-45.55,783.75a8.12,8.12,0,0,0,4.76,9.44,141.19,141.19,0,0,0,46.46,9.44,14,14,0,0,0,13.87-10c16.31-55.49,94.44-333.5,104.64-599.08,11.39-296.75,0-10.1,0-10.1l-6.68-183.44Z"/><path class="cls-7" d="M2506.77,3140.29s9.83,17.64,19.34,64.51a14.55,14.55,0,0,1-12.79,17.41c-15.21,1.49-38.62,3.42-57.38,3.29a14.5,14.5,0,0,1-14.35-16.17c2.08-17.11,8.55-45.18,28.54-67Z"/><path class="cls-8" d="M2515.4,3086.54l-11.58,63.2s-11.46,8.52-34.12,2.34l5.53-68Z"/><path class="cls-9" d="M2546.7,2332.26c46.66,281.57-10.12,695.93-29.27,777a12.64,12.64,0,0,1-10.21,9.6c-8.55,1.42-22.62,2.57-36.49-1.46a11.6,11.6,0,0,1-8.34-10.67c-2.57-65.57,2.06-468.08-41.41-627.15a36.16,36.16,0,0,0-13.94-19.94l-84.38-60-6.47-97Z"/><path class="cls-10" d="M2271.71,1808.78s214.33-53.41,364.23,26l-89.24,497.51s-142,11.45-230.51-16.72Z"/><path class="cls-11" d="M2512.09,1659.73l16.4,141.17a4.64,4.64,0,0,1-1.26,5.84c-11,8.44-51.28,34.14-108.34,9a21.81,21.81,0,0,1-12.27-13.91l23.21-122.35Z"/><path class="cls-12" d="M2380.53,1586.13s-20.88,102-4.38,135.88,73.83,14.2,116-29.68l7.38-105.69Z"/><path class="cls-13" d="M2476.15,1646.21a3.79,3.79,0,0,1-3.16-4.85c2.07-6.84,5.66-20.62,4.89-31.52,0,0,6.83-7.88-25.14-6.23s-79.78,3.67-96.62-19c-16.43-22.1-10.81-91.49,42.08-53.1a3.79,3.79,0,0,0,5.77-1.66c3.87-10,15.37-31.81,41.29-28.28,24.25,3.3,31.29,18.29,33.33,26.29a3.76,3.76,0,0,0,5.37,2.44c10.22-5.26,35.69-14.69,55.68,8.41,16.46,19,13.63,33.36,9.5,41.18a3.79,3.79,0,0,0,3.33,5.57c7.76.08,18.73,3.41,22.72,20.36,5.52,23.43-20.86,29-28.51,30.1a3.79,3.79,0,0,0-2.89,2.09c-4.24,8.82-23.89,46.74-53.52,59.35a3.83,3.83,0,0,1-5.28-3.71l1.91-42.52a3.81,3.81,0,0,0-3.31-4Z"/><path class="cls-14" d="M2472.42,1653.27s26.63-32.72,34.74-14.16-21.82,36.77-40,34.32Z"/><path class="cls-15" d="M2675.14,2107.85s-14.62,186.82-137.6,194.87c0,0-52.72-4.83-75.6,13.14s-11.79,45.66-11.79,45.66l99.22-12.1s141.91,23.63,227.24-213.9Z"/><path class="cls-16" d="M2635.94,1834.75s168.34,100.14,140.67,300.77c0,0-60.14,26.06-103.87-8.88,0,0-34.07-130.34-108.08-136.83Z"/><path class="cls-17" d="M2159.86,1906.54s-80.84,37.58-175.39-62.74c-64.62-68.56-104.15-26.52-116.65,1.15s17.39,25.37,27.82,25.37,11.71-30.11,30.09-26,13-1.39,14.13,17.06,100,226.78,222.18,125.32Z"/><path class="cls-18" d="M1790.38,1920.08,2004,1906.61a37,37,0,0,1,39.06,32.24l47.85,371.55a37,37,0,0,1-36.74,41.77H1775.42a37,37,0,0,1-37-38.82l17.28-358.1A37,37,0,0,1,1790.38,1920.08Z"/><path class="cls-19" d="M1821.88,1957.83a6.92,6.92,0,0,1-6.91-6.63c-.2-4.77-4-117,75-129.35,16.9-2.62,31.9,1.33,44.57,11.81,38.45,31.78,41.7,113.55,41.82,117a6.9,6.9,0,0,1-6.67,7.15,7,7,0,0,1-7.15-6.67c0-.78-3.16-79-36.83-106.84-9.61-7.94-20.61-10.8-33.6-8.78-66.92,10.45-63.38,114-63.34,115.09a6.91,6.91,0,0,1-6.62,7.2Z"/><path class="cls-20" d="M2271.71,1808.78l-130.43,97.76s-2.31,73.24,15,107.87l145.28-35.7Z"/><path class="cls-21" d="M2807.39,1596.59s36.22,17.62,42.88,37.86c5.34,16.24,45.39,18.33,49.35,50.27,2,16.49,14.24,29.69,30.67,32.21,40.9,6.27,103.94,27.51,114,98.53,7.7,54.2-19.93,74.76-48.93,81.87-21.31,5.23-35.46,26-31.15,47.45,4.13,20.63-2,44.47-37.77,63.33-80.07,42.25-160-100.1-160-100.1L2750,1659.44Z"/><path class="cls-22" d="M3136.54,3155.15l5.18,42.6a17.6,17.6,0,0,0,15.43,15.4c13.66,1.55,35.57,3.15,57,.89a15.07,15.07,0,0,0,12.66-19.55c-5.23-16.44-14.79-41.13-28.58-55.65H3151A14.55,14.55,0,0,0,3136.54,3155.15Z"/><path class="cls-23" d="M2766.42,2656.14l-8,46.92s26.71,270.54,31.46,378.76a84.79,84.79,0,0,1-12.54,48.2l-46.45,75.42,118-69.66,2.35-14.4L2832,3094.81l25.31-303.08a92.92,92.92,0,0,0-10.58-51.43l-24.41-45.86Z"/><path class="cls-24" d="M2723.14,3216.36h37.67a22.7,22.7,0,0,0,18-8.82c11.74-15.26,36.07-45,47.7-45.81,15.66-1,13.66,54.63,13.66,54.63H2849l11.12-69.18a41,41,0,0,0-21.49-42.81h0s-3.58,26.48-23,38.19-79,53.65-79,53.65a53.92,53.92,0,0,0-15.3.4C2709.4,3198.76,2711.06,3216.36,2723.14,3216.36Z"/><path class="cls-25" d="M2928.09,2678.42s156.47,296.82,181.35,364.58,33.58,124.31,33.92,129.66c.52,8.36,10.92,16.39,39.6,16.39,14.8,0,22.05-5.94,25.6-11.68a16.71,16.71,0,0,0,.64-16.19c-9.06-18.32-37.78-76.86-48.42-103.41-12.7-31.7-40-175.36-55-225.31s-31.92-104.13-97.18-154C3008.6,2678.42,2963.81,2634.55,2928.09,2678.42Z"/><path class="cls-26" d="M2829.24,2192.07c-40.36-171,61.89-267.77,61.89-267.77-64.52-61.93-182.07-90.11-182.07-90.11s-112.17,82-98.86,146.2C2618,2018,2689,2205.73,2689,2205.73S2754.74,2236.82,2829.24,2192.07Z"/><path class="cls-27" d="M2918.73,2276.75c-16.42-49.49-89.49-84.68-89.49-84.68-74.5,44.75-140.2,13.66-140.2,13.66s-14.73,56.32-4.56,108.65,74,388.68,74,388.68c100.53,20.36,255.13-20.5,255.13-20.5C2949.54,2568.88,2935.16,2326.23,2918.73,2276.75Z"/><path class="cls-28" d="M2782.39,1721.17l32.82,147.4c3.14,13-8.7,10.86-21.82,8.38-21.5-4-49.21-12.4-58.47-29.12a16.08,16.08,0,0,1-1.68-5.56l-14.1-102.21a18.37,18.37,0,0,1,10.75-19.3l27.21-12.06A18.36,18.36,0,0,1,2782.39,1721.17Z"/><path class="cls-29" d="M2891.13,1924.3s229,163.87,29.29,336.06c0,0-7.61,8.62-22.6,13.1-7.56,2.26-29.94,19.19-41.28,28a7.77,7.77,0,0,1-11.37-2h0a10.62,10.62,0,0,1-.6-10.18l28.36-60a21.86,21.86,0,0,1,28.4-1.23h0a10.79,10.79,0,0,0,16.36-3.71c15.45-31.44,44.6-123.94-74.74-228.45a12.93,12.93,0,0,1-2.86-15.72C2848.47,1964.07,2867.65,1932.09,2891.13,1924.3Z"/><path class="cls-30" d="M2719.54,1586.79s-34.94,23.65-49.95,83.88,9.38,81.83,34.39,80.5,61.27-9.05,92.68-52.26S2765.32,1557.9,2719.54,1586.79Z"/><path class="cls-31" d="M2765,1674.62s12.8-86.3-58.85-73.1l-14.48,15.08s-35.08-39.49,3.74-69.35,92.66-22.21,122.46,32.15,40.61,92.54,15.63,126.31-43.76,4.81-43.76,4.81,11.46-29.23,2-41.77-21.76,7.29-21.76,7.29Z"/><path class="cls-32" d="M2774.77,1682s6.32-44.4,29-31.71-8.17,41.48-20.54,51.27Z"/><path class="cls-18" d="M1296.76,1183.32c34-66,97.2-112.56,170.63-120.87l5-317.9a4.84,4.84,0,0,0-4.87-4.92c-207.11,2.25-389.86,131.15-475.14,322.07a5.32,5.32,0,0,0,3,7.12Z"/><path class="cls-33" d="M1706,1335.63a9.49,9.49,0,0,0-9.33,6.65c-3.55,11.36-10.05,33.17-11.12,35.93a292.49,292.49,0,0,1-18.34,39c-13.18,23.19-30,44.45-50.81,61.28-52.68,42.66-128.41,50.58-191.58,29.47-1.8-.6-3.58-1.25-5.36-1.91a7.06,7.06,0,0,0-8.67,3.21l-159.28,290.47c77.34,38.78,150.12,48.93,241.44,43.07,265.29-17,473.62-232.41,496.74-499.54Z"/><path class="cls-18" d="M1706,1335.63c-17.27,106-95.61,188.82-202.06,192.44-30,1-65.68-5.94-92-16.58a6,6,0,0,0-7.36,2.56l-163.71,281.64a497.41,497.41,0,0,0,256,51.91c265.29-17,473.62-238.95,496.74-506.08Z"/><path class="cls-34" d="M1206.79,1751.22l158.52-284.32a4.81,4.81,0,0,0-1.12-6c-48.8-41.09-87.82-96.2-87.82-167.65,0-17.62-7.81-43.27-4.23-59.81L974,1126.83a579.78,579.78,0,0,0-25.48,170.49c0,191.9,102,360.67,242,457.69A11.28,11.28,0,0,0,1206.79,1751.22Z"/><path class="cls-26" d="M1190.94,1743.14l164.27-280.8a8.63,8.63,0,0,0-1.73-10.84c-47.13-41.45-77.11-103.75-77.11-174a242.5,242.5,0,0,1,5.49-51.34L978.5,1112.72a4.47,4.47,0,0,0-5.85,2.89,579.87,579.87,0,0,0-24.1,165.93C948.55,1478.1,1045.68,1647.37,1190.94,1743.14Z"/><path class="cls-35" d="M1525.5,1064c94,15.73,167,94.91,179.3,193.85a10.82,10.82,0,0,0,10.36,9.51l454.78,15.24,3.57-3.46c-1.39-380.45-274.19-706.39-639.61-749.53Z"/><circle class="cls-36" cx="2193.39" cy="877.39" r="131.6" transform="translate(22.02 1807.94) rotate(-45)"/><circle class="cls-37" cx="2193.39" cy="877.39" r="127.23" transform="translate(22.02 1807.94) rotate(-45)"/><path class="cls-38" d="M2086.92,832.31a4.24,4.24,0,0,1-4-6A121.92,121.92,0,0,1,2211.35,757a4.26,4.26,0,1,1-1.25,8.42,115.46,115.46,0,0,0-20.47-1.16,112.73,112.73,0,0,0-99,65.59A4.24,4.24,0,0,1,2086.92,832.31Z"/><circle class="cls-38" cx="2196.26" cy="880.07" r="107.68" transform="translate(20.97 1810.75) rotate(-45)"/><path class="cls-39" d="M2188.36,960.43l-.39-11.71c-12.22-.08-24.39-2.56-33.09-6a6.78,6.78,0,0,1-4-7.88l2.61-11a6.83,6.83,0,0,1,9.12-4.78,79.47,79.47,0,0,0,30.54,5.38c11.76-.39,20.4-4.67,20.12-12.84-.24-7.37-7.16-11.53-23.65-15.37-23.52-5.6-40.6-15.21-41.28-35.73-.62-18.53,12.46-33.13,35.85-37.7l-.39-11.71a6.82,6.82,0,0,1,6.59-7l6.88-.23a6.83,6.83,0,0,1,7,6.6l.35,10.51a87.42,87.42,0,0,1,26.2,3.81,6.79,6.79,0,0,1,4.51,8l-2.4,10.18a6.81,6.81,0,0,1-8.83,4.9,70.79,70.79,0,0,0-25.69-3.79c-13.95.46-17.74,6.37-17.57,11.55.21,6.38,8.73,10.49,27,15.46,26.16,6.91,37.28,17.31,37.92,36.64.59,17.74-12,34.12-37.4,38.95l.43,13.1a6.82,6.82,0,0,1-6.59,7l-6.88.23A6.82,6.82,0,0,1,2188.36,960.43Z"/><circle class="cls-40" cx="1998.06" cy="1102.86" r="108.15" transform="translate(-46.02 2117.88) rotate(-55.3)"/><circle class="cls-41" cx="1998.06" cy="1102.86" r="104.56" transform="translate(-194.62 1735.86) rotate(-45)"/><path class="cls-38" d="M1910.56,1065.82a3.54,3.54,0,0,1-1.58-.33,3.5,3.5,0,0,1-1.7-4.64,99.61,99.61,0,0,1,87.46-57.95,101,101,0,0,1,18.08,1,3.49,3.49,0,1,1-1,6.91,95.41,95.41,0,0,0-16.83-1,92.64,92.64,0,0,0-81.35,53.9A3.51,3.51,0,0,1,1910.56,1065.82Z"/><circle class="cls-38" cx="2000.42" cy="1105.06" r="88.49" transform="translate(-195.49 1738.17) rotate(-45)"/><path class="cls-42" d="M1993.92,1171.1l-.32-9.62a78.57,78.57,0,0,1-27.19-5,5.59,5.59,0,0,1-3.3-6.48l2.15-9a5.62,5.62,0,0,1,7.49-3.93,65.17,65.17,0,0,0,25.11,4.42c9.66-.32,16.76-3.83,16.53-10.55-.2-6.06-5.89-9.47-19.44-12.63-19.33-4.6-33.36-12.5-33.92-29.36-.51-15.23,10.24-27.23,29.46-31l-.32-9.63a5.6,5.6,0,0,1,5.42-5.79l5.65-.19a5.6,5.6,0,0,1,5.79,5.42l.29,8.64a71.64,71.64,0,0,1,21.53,3.13,5.58,5.58,0,0,1,3.71,6.62l-2,8.36a5.6,5.6,0,0,1-7.26,4,58.24,58.24,0,0,0-21.11-3.12c-11.47.39-14.58,5.24-14.44,9.5.17,5.24,7.17,8.61,22.23,12.7,21.5,5.68,30.63,14.23,31.16,30.12.49,14.57-9.89,28-30.74,32l.36,10.77a5.62,5.62,0,0,1-5.42,5.8l-5.65.18A5.61,5.61,0,0,1,1993.92,1171.1Z"/><circle class="cls-43" cx="2510.67" cy="694.31" r="171.55" transform="translate(244.41 1978.67) rotate(-45)"/><circle class="cls-44" cx="2510.67" cy="694.31" r="165.84" transform="translate(244.41 1978.67) rotate(-45)"/><path class="cls-38" d="M2371.8,633.1a3.15,3.15,0,0,1-1.4-.29,3.1,3.1,0,0,1-1.51-4.11,156.43,156.43,0,0,1,164.83-88.89,3.09,3.09,0,1,1-.91,6.12,150.28,150.28,0,0,0-158.3,85.38A3.11,3.11,0,0,1,2371.8,633.1Z"/><circle class="cls-38" cx="2514.4" cy="697.8" r="140.37" transform="translate(1192.66 2947.72) rotate(-75.08)"/><path class="cls-45" d="M2504.1,802.55l-.5-15.26c-15.94-.11-31.8-3.34-43.14-7.86a8.85,8.85,0,0,1-5.23-10.27l3.41-14.35a8.9,8.9,0,0,1,11.88-6.22,103.45,103.45,0,0,0,39.82,7c15.33-.51,26.58-6.09,26.23-16.74-.32-9.61-9.34-15-30.83-20-30.67-7.3-52.93-19.82-53.82-46.58-.8-24.16,16.25-43.18,46.73-49.14l-.5-15.26a8.89,8.89,0,0,1,8.59-9.19l9-.3a8.9,8.9,0,0,1,9.19,8.6l.45,13.7c14.75.1,25.55,2.26,34.15,5a8.85,8.85,0,0,1,5.89,10.5l-3.13,13.26a8.87,8.87,0,0,1-11.51,6.38,92.64,92.64,0,0,0-33.49-4.93c-18.18.6-23.13,8.31-22.9,15.06.27,8.31,11.37,13.66,35.25,20.15,34.11,9,48.6,22.56,49.44,47.76.77,23.12-15.69,44.47-48.76,50.77l.57,17.08a8.9,8.9,0,0,1-8.6,9.19l-9,.3A8.91,8.91,0,0,1,2504.1,802.55Z"/><path class="cls-46" d="M911.88,1582.36S875.65,1600,869,1620.23c-5.34,16.24-45.4,18.33-49.36,50.28-2,16.49-14.25,29.7-30.67,32.22C748,1709,685,1730.24,674.9,1801.28c-7.7,54.22,19.94,74.78,49,81.89,21.31,5.23,35.46,25.95,31.16,47.46-4.14,20.63,2,44.48,37.77,63.34,80.09,42.27,160.08-100.12,160.08-100.12l16.39-248.62Z"/><path class="cls-47" d="M1347.7,1523.42s-159.92,252.95-350.08,301.81c0,0,37.05,105.54,65.65,117.62,0,0,234-195.21,294.08-383.49Z"/><path class="cls-48" d="M582.65,3141.3l-5.18,42.61a17.61,17.61,0,0,1-15.44,15.4c-13.66,1.56-35.58,3.16-57,.89a15.07,15.07,0,0,1-12.66-19.55c5.23-16.45,14.79-41.14,28.58-55.67H568.2A14.56,14.56,0,0,1,582.65,3141.3Z"/><path class="cls-49" d="M952.86,2642.16l8,46.93S934.12,2959.71,929.37,3068a84.93,84.93,0,0,0,12.55,48.21l46.46,75.44-118.07-69.67L868,3107.52,887.29,3081,862,2777.79a92.93,92.93,0,0,1,10.58-51.44L897,2680.47Z"/><path class="cls-50" d="M996.15,3202.53H958.48a22.7,22.7,0,0,1-18-8.83c-11.74-15.26-36.08-45-47.71-45.82-15.67-1-13.66,54.65-13.66,54.65h-8.79l-11.12-69.2a41,41,0,0,1,21.5-42.82s3.58,26.48,23,38.19,79,53.67,79,53.67a54.07,54.07,0,0,1,15.32.4C1009.9,3184.92,1008.23,3202.53,996.15,3202.53Z"/><path class="cls-51" d="M791.15,2664.45s-156.51,296.89-181.39,364.68-33.59,124.33-33.93,129.68c-.52,8.37-10.93,16.4-39.61,16.4-14.81,0-22.06-5.94-25.61-11.68a16.73,16.73,0,0,1-.63-16.2c9-18.32,37.78-76.88,48.42-103.43,12.71-31.71,40-175.41,55-225.37s31.93-104.16,97.2-154.08C710.62,2664.45,755.42,2620.57,791.15,2664.45Z"/><path class="cls-52" d="M890,2178c40.38-171.08-61.9-267.84-61.9-267.84,64.53-61.94,182.12-90.13,182.12-90.13s112.19,82,98.88,146.23c-7.8,37.63-78.86,225.4-78.86,225.4S964.55,2222.75,890,2178Z"/><path class="cls-53" d="M800.51,2262.68C816.94,2213.18,890,2178,890,2178c74.53,44.76,140.24,13.66,140.24,13.66s14.74,56.33,4.56,108.67-74,388.77-74,388.77c-100.55,20.38-255.19-20.49-255.19-20.49C769.69,2554.89,784.08,2312.18,800.51,2262.68Z"/><path class="cls-54" d="M936.89,1707,904.06,1854.4c-3.14,13,8.7,10.87,21.83,8.39,21.5-4,49.21-12.4,58.48-29.13a16.08,16.08,0,0,0,1.68-5.56l14.1-102.24a18.37,18.37,0,0,0-10.75-19.3l-27.21-12.07A18.37,18.37,0,0,0,936.89,1707Z"/><path class="cls-55" d="M828.12,1910.15S511.3,2223.78,970.77,2098.59c0,0,5.24-39.65-1.6-39-149,14.86-211.32,49-90.2-68.47,4.28-4.16,3-19.83.21-25.12C870.79,1949.93,851.61,1917.94,828.12,1910.15Z"/><path class="cls-56" d="M999.76,1572.56s34.94,23.65,50,83.89-9.39,81.85-34.4,80.53-61.28-9.06-92.71-52.28S954,1543.65,999.76,1572.56Z"/><path class="cls-57" d="M954.3,1660.4s-12.8-86.31,58.86-73.11l14.49,15.09s35.08-39.51-3.74-69.37-92.69-22.22-122.49,32.15-40.62,92.56-15.64,126.35,43.77,4.81,43.77,4.81-11.45-29.24-1.95-41.79,21.77,7.3,21.77,7.3Z"/><path class="cls-58" d="M944.51,1667.8s-6.32-44.41-29-31.72,8.18,41.49,20.55,51.28Z"/><path class="cls-59" d="M1346.61,1575.5c.48,5.21-18.92,8.82-25.1-13.42,1.7-9.66,4.71-51.95,12.12-58.52,39.44-35,109.76-74.36,109.76-74.36,7.87,12-2.45,19.92-2.45,19.92l-35.1,23.69c3.66,12.13,9,22.85,9.61,36.7a41.08,41.08,0,0,1-10.38,28.7c-7,8-16.39,18.29-24.87,26.12C1364.15,1579.14,1346.61,1575.5,1346.61,1575.5Z"/><path class="cls-60" d="M1365.67,1558.26l-5.36-2.21c.71-1.74,17.56-42.67,25.71-51.19,3.09-3.23,4.59-6,4.45-8.23a5.88,5.88,0,0,0-1.8-3.61l-28.41,15.19-12.54,19.64-4.89-3.12,13.36-20.93,33.27-17.79,1.5,1.23c3.36,2.75,5.1,5.7,5.3,9,.25,4-1.73,8.09-6,12.6C1384.08,1515.29,1370.42,1546.69,1365.67,1558.26Z"/><path class="cls-61" d="M952.24,2163.28l76.68-267.77a7.8,7.8,0,0,1,6.6-5.62c13.9-1.62,54.15-6.17,100.63-10.1,56-4.74,121-8.57,159.84-5.31a7.84,7.84,0,0,1,6.41,11.28c-22.09,44.69-113,226.5-158.48,286.06a7.83,7.83,0,0,1-6.32,3.11l-177.9-1.66A7.84,7.84,0,0,1,952.24,2163.28Z"/><path class="cls-62" d="M970.77,2098.59s-10.68-43.92-6.37-59.5,12.65-35.62,40.48-31.17,60.64,16.18,60.64,16.18-1.65,20.29-22.8,13.74l13.11,10.15s-1.87,16.25-19.73,7.57l12.19,13.46s-7.67,13.34-20.81,4.78S1008,2103.88,970.77,2098.59Z"/></svg>